<mxfile host="app.diagrams.net" agent="Mozilla/5.0 (Macintosh; Intel Mac OS X 10_15_7) AppleWebKit/537.36 (KHTML, like Gecko) Chrome/140.0.0.0 Safari/537.36" version="28.2.1" pages="2">
  <diagram name="ACL" id="Zhg7EDbFMCneR9Rh9rgj">
    <mxGraphModel dx="976" dy="630" grid="1" gridSize="10" guides="1" tooltips="1" connect="1" arrows="1" fold="1" page="1" pageScale="1" pageWidth="850" pageHeight="1100" math="0" shadow="0">
      <root>
        <mxCell id="0" />
        <mxCell id="1" parent="0" />
        <mxCell id="Eqv0VGOcbbFtO8NlT7Rs-1" value="User" style="rounded=0;whiteSpace=wrap;html=1;align=left;verticalAlign=top;" vertex="1" parent="1">
          <mxGeometry x="200" y="240" width="110" height="70" as="geometry" />
        </mxCell>
        <mxCell id="Eqv0VGOcbbFtO8NlT7Rs-2" value="ACL SETUSER {username} on &amp;gt; {password } @admin&amp;nbsp;" style="text;html=1;align=center;verticalAlign=middle;whiteSpace=wrap;rounded=0;" vertex="1" parent="1">
          <mxGeometry x="320" y="240" width="330" height="30" as="geometry" />
        </mxCell>
        <mxCell id="Eqv0VGOcbbFtO8NlT7Rs-4" value="commands" style="rounded=1;whiteSpace=wrap;html=1;" vertex="1" parent="1">
          <mxGeometry x="30" y="410" width="120" height="60" as="geometry" />
        </mxCell>
        <mxCell id="Eqv0VGOcbbFtO8NlT7Rs-5" value="keys" style="rounded=1;whiteSpace=wrap;html=1;" vertex="1" parent="1">
          <mxGeometry x="310" y="410" width="120" height="60" as="geometry" />
        </mxCell>
        <mxCell id="Eqv0VGOcbbFtO8NlT7Rs-6" value="admin" style="rounded=1;whiteSpace=wrap;html=1;" vertex="1" parent="1">
          <mxGeometry x="560" y="410" width="120" height="60" as="geometry" />
        </mxCell>
      </root>
    </mxGraphModel>
  </diagram>
  <diagram id="-BzQIrfe9DRVMClWkjf0" name="Persistence">
    <mxGraphModel dx="813" dy="525" grid="1" gridSize="10" guides="1" tooltips="1" connect="1" arrows="1" fold="1" page="1" pageScale="1" pageWidth="850" pageHeight="1100" math="0" shadow="0">
      <root>
        <mxCell id="0" />
        <mxCell id="1" parent="0" />
        <mxCell id="ED-NXZDos0bc6hfxN6Sh-3" style="edgeStyle=orthogonalEdgeStyle;rounded=0;orthogonalLoop=1;jettySize=auto;html=1;" edge="1" parent="1" source="ED-NXZDos0bc6hfxN6Sh-1" target="ED-NXZDos0bc6hfxN6Sh-2">
          <mxGeometry relative="1" as="geometry" />
        </mxCell>
        <mxCell id="ED-NXZDos0bc6hfxN6Sh-4" value="good for backups&lt;div&gt;can impact performance&lt;/div&gt;&lt;div&gt;redis needs to fork&lt;/div&gt;" style="edgeLabel;html=1;align=center;verticalAlign=middle;resizable=0;points=[];" vertex="1" connectable="0" parent="ED-NXZDos0bc6hfxN6Sh-3">
          <mxGeometry x="-0.3" y="-4" relative="1" as="geometry">
            <mxPoint x="35" y="-34" as="offset" />
          </mxGeometry>
        </mxCell>
        <mxCell id="ED-NXZDos0bc6hfxN6Sh-6" style="edgeStyle=orthogonalEdgeStyle;rounded=0;orthogonalLoop=1;jettySize=auto;html=1;exitX=1;exitY=0.75;exitDx=0;exitDy=0;entryX=0;entryY=0.5;entryDx=0;entryDy=0;" edge="1" parent="1" source="ED-NXZDos0bc6hfxN6Sh-1" target="ED-NXZDos0bc6hfxN6Sh-5">
          <mxGeometry relative="1" as="geometry" />
        </mxCell>
        <mxCell id="ED-NXZDos0bc6hfxN6Sh-7" value="appendfsync always: add to log file&amp;nbsp;&lt;div&gt;every time data is saved&lt;/div&gt;&lt;div&gt;appendfsync everysec&lt;/div&gt;&lt;div&gt;appendfsync no: let OS determine when to flush data.&amp;nbsp; linux does every 30s.&lt;/div&gt;" style="edgeLabel;html=1;align=center;verticalAlign=middle;resizable=0;points=[];" vertex="1" connectable="0" parent="ED-NXZDos0bc6hfxN6Sh-6">
          <mxGeometry x="0.073" y="2" relative="1" as="geometry">
            <mxPoint x="18" y="146" as="offset" />
          </mxGeometry>
        </mxCell>
        <mxCell id="ED-NXZDos0bc6hfxN6Sh-1" value="redis" style="rounded=1;whiteSpace=wrap;html=1;" vertex="1" parent="1">
          <mxGeometry x="200" y="120" width="120" height="60" as="geometry" />
        </mxCell>
        <mxCell id="ED-NXZDos0bc6hfxN6Sh-2" value="point in time snapshot" style="rounded=1;whiteSpace=wrap;html=1;" vertex="1" parent="1">
          <mxGeometry x="520" y="120" width="120" height="60" as="geometry" />
        </mxCell>
        <mxCell id="ED-NXZDos0bc6hfxN6Sh-5" value="append only file&lt;div&gt;AOF&lt;/div&gt;" style="rounded=1;whiteSpace=wrap;html=1;" vertex="1" parent="1">
          <mxGeometry x="520" y="250" width="120" height="60" as="geometry" />
        </mxCell>
      </root>
    </mxGraphModel>
  </diagram>
</mxfile>
